<?xml version="1.0" encoding="UTF-8"?>
<svg version="1.1" xmlns="http://www.w3.org/2000/svg" width="1080" height="1080">
<path d="M0 0 C5.74651044 3.32996983 8.26715235 7.7474196 10.1484375 13.98046875 C10.93974313 17.85267747 10.5625935 20.43711354 9.625 24.3125 C8.94308594 25.27027344 8.26117187 26.22804688 7.55859375 27.21484375 C4.37512744 32.64550504 5.38790999 38.68509174 5.75 44.75 C5.80986084 46.0186792 5.86972168 47.2873584 5.93139648 48.59448242 C6.53338762 60.52194342 7.4810944 72.42553919 8.625 84.3125 C9.72972656 84.11785156 10.83445312 83.92320313 11.97265625 83.72265625 C19.07849056 83.01346491 24.78457533 83.33613435 30.79833984 87.52050781 C34.19292495 90.31202438 37.30396808 93.36045809 40.375 96.5 C40.89571075 97.02272491 41.41642151 97.54544983 41.95291138 98.08401489 C48.35777034 104.60133089 48.35777034 104.60133089 50.625 108.3125 C50.39160156 111.66137695 50.39160156 111.66137695 49.625 114.3125 C47.58540523 114.82088564 45.54320862 115.31883886 43.5 115.8125 C42.36304688 116.0909375 41.22609375 116.369375 40.0546875 116.65625 C36.72743439 117.2928998 33.9923586 117.68717133 30.625 117.3125 C28.46868192 115.67753542 26.84866504 113.8527366 25.04296875 111.84375 C22.28475555 110.09703017 21.16662548 110.14653597 17.97387695 110.21679688 C17.16038284 110.23061401 16.34688873 110.24443115 15.50874329 110.25866699 C14.887108 110.27643188 14.26547272 110.29419678 13.625 110.3125 C13.62592179 110.96861676 13.62684359 111.62473352 13.62779331 112.30073261 C13.65017972 128.49715949 13.66656901 144.69358076 13.67681217 160.89001942 C13.68190124 168.72347905 13.68885567 176.55692794 13.70043945 184.39038086 C13.72359105 200.71904612 13.71998532 217.04699712 13.65189934 233.37556267 C13.62315206 240.80839672 13.63875757 248.23882884 13.71432209 255.67136478 C13.74764114 259.6781806 13.7433819 263.6842717 13.72805595 267.69116783 C13.72962935 269.45914165 13.74766089 271.2272004 13.78450203 272.99479103 C14.00222833 283.80351823 12.63153346 290.15174837 5.49842834 298.46516418 C1.64791463 302.27738082 -2.36215833 306.12899228 -7.375 308.3125 C-11.87549055 308.19491725 -13.91279639 306.25915473 -16.984375 303.12890625 C-18.23927734 301.86143555 -18.23927734 301.86143555 -19.51953125 300.56835938 C-20.80923828 299.23514648 -20.80923828 299.23514648 -22.125 297.875 C-23.00027344 296.99005859 -23.87554688 296.10511719 -24.77734375 295.19335938 C-32.50233612 287.33063459 -32.50233612 287.33063459 -32.48852539 279.97135925 C-32.48867425 279.31320372 -32.48882311 278.6550482 -32.48897648 277.97694856 C-32.48827937 275.76088612 -32.48042489 273.54490554 -32.47265625 271.32885742 C-32.47073786 269.74376472 -32.46927369 268.1586714 -32.4682312 266.57357788 C-32.46506369 263.15285822 -32.45878475 259.73216308 -32.45016479 256.31145287 C-32.43665478 250.89312803 -32.43074985 245.47481141 -32.42602539 240.05647278 C-32.41396586 227.56150647 -32.39199814 215.06656119 -32.36979675 202.5716095 C-32.3495804 191.14996905 -32.33150293 179.72833609 -32.32158184 168.30668145 C-32.31662424 162.931267 -32.30679985 157.5558909 -32.29315186 152.18049181 C-32.28563475 148.8169114 -32.28236497 145.45333608 -32.2801857 142.08974838 C-32.27833032 140.54231135 -32.27476334 138.99487516 -32.26925278 137.44744682 C-32.23793571 128.35808404 -32.51502685 119.36664496 -33.375 110.3125 C-36.3808377 109.94336204 -38.45622789 109.6999182 -41.375 110.3125 C-43.24728941 111.85121819 -43.24728941 111.85121819 -44.875 113.8125 C-47.53012323 116.7666236 -47.99448089 117.24908015 -52.125 117.9375 C-56.80143514 117.50568772 -64.97834471 116.70915529 -68.375 113.3125 C-68.854563 109.50496747 -68.72479855 107.8129208 -66.49829102 104.62768555 C-61.35550994 99.36890549 -61.35550994 99.36890549 -59.4699707 97.51538086 C-57.94820724 96.01058783 -56.4674347 94.47243315 -54.98632812 92.92773438 C-46.98290254 84.79962349 -46.98290254 84.79962349 -41.83984375 84.20703125 C-41.17714981 84.22940353 -40.51445587 84.25177582 -39.8316803 84.27482605 C-37.05154606 84.31746027 -34.36289623 84.0875706 -31.59594727 83.8190918 C-30.615298 83.72532761 -29.63464874 83.63156342 -28.62428284 83.53495789 C-27.8820195 83.46154678 -27.13975616 83.38813568 -26.375 83.3125 C-25.94498904 76.87143814 -25.51806517 70.43017692 -25.09326172 63.98876953 C-24.94846102 61.7986185 -24.80296013 59.60851364 -24.65673828 57.41845703 C-24.44638836 54.26607014 -24.23857741 51.11352444 -24.03125 47.9609375 C-23.93281799 46.4980983 -23.93281799 46.4980983 -23.83239746 45.00570679 C-22.68905973 36.37125389 -22.68905973 36.37125389 -25.3125 28.625 C-25.993125 27.861875 -26.67375 27.09875 -27.375 26.3125 C-29.06842522 21.23222433 -29.34439074 15.40170304 -27.7265625 10.24609375 C-22.22815098 -0.2572821 -11.07457663 -5.15289869 0 0 Z M-5.375 41.3125 C-12.11514273 46.67166055 -12.11514273 46.67166055 -16.0390625 53.98046875 C-16.05481575 56.68726581 -16.05481575 56.68726581 -15.375 60.3125 C-13.65899394 58.87342864 -11.95535537 57.42305305 -10.265625 55.953125 C-8.67451813 54.57241243 -7.05869971 53.22025082 -5.4375 51.875 C-2.76208826 48.55100359 -2.96752667 46.46872798 -3.375 42.3125 C-4.035 41.9825 -4.695 41.6525 -5.375 41.3125 Z M-10.4375 72 C-11.10072266 72.62583984 -11.76394531 73.25167969 -12.44726562 73.89648438 C-13.07439453 74.51201172 -13.70152344 75.12753906 -14.34765625 75.76171875 C-14.92781494 76.32205811 -15.50797363 76.88239746 -16.10571289 77.4597168 C-17.74526562 79.85297813 -17.61083655 81.47302793 -17.375 84.3125 C-16.055 84.6425 -14.735 84.9725 -13.375 85.3125 C-11.66526755 83.37118996 -9.9612711 81.42579325 -8.26953125 79.46875 C-7.12969453 78.1714513 -5.96667512 76.89329963 -4.76171875 75.65625 C-3.16653457 74.03944118 -3.16653457 74.03944118 -1.375 71.3125 C-1.42132548 68.01840396 -1.42132548 68.01840396 -2.375 65.3125 C-5.14788281 65.3125 -8.55257067 70.15560679 -10.4375 72 Z M-4.375 110.3125 C-4.47263971 112.67797519 -4.50497288 115.01420935 -4.49525452 117.38014221 C-4.49610894 118.12828672 -4.49696337 118.87643123 -4.49784368 119.64724678 C-4.49950073 122.17313947 -4.49397348 124.69896686 -4.48852539 127.22485352 C-4.48824354 129.02793374 -4.48840121 130.83101408 -4.4889679 132.63409424 C-4.48925596 137.54504539 -4.48335784 142.45597234 -4.47639394 147.36691785 C-4.47016184 152.49322212 -4.46955672 157.61952688 -4.46836853 162.74583435 C-4.46525479 172.46040626 -4.45704083 182.17496697 -4.44701904 191.88953394 C-4.43585923 202.94617717 -4.43034779 214.00282093 -4.42532361 225.05946839 C-4.41485825 247.81048514 -4.39725798 270.56149195 -4.375 293.3125 C-3.6325 292.57 -2.89 291.8275 -2.125 291.0625 C-0.50413361 289.44163361 1.15514554 287.85536128 2.89113045 286.3584404 C5.15026925 283.69269007 5.21219073 282.04417359 5.36691284 278.57745361 C5.42218014 277.41861916 5.47744743 276.2597847 5.5343895 275.06583405 C5.69531211 268.39998058 5.76410087 261.74050366 5.75439453 255.07324219 C5.75575291 253.48676005 5.75753528 251.90027823 5.75970459 250.313797 C5.76422259 246.0480988 5.76251399 241.78242506 5.7593255 237.51672649 C5.7567779 233.04225795 5.7591456 228.56779138 5.76071167 224.09332275 C5.76252412 216.59557725 5.76014901 209.09784165 5.75537109 201.60009766 C5.74990638 192.92420566 5.75171077 184.24833708 5.7571975 175.57244563 C5.76172663 168.11235501 5.76238088 160.65227146 5.75975883 153.19217992 C5.75819801 148.74059111 5.75799747 144.28901334 5.76129532 139.83742523 C5.76417192 135.66441426 5.76220232 131.49143379 5.75640106 127.31842613 C5.75507334 125.78368111 5.75546778 124.24893355 5.75766373 122.71418953 C5.76037418 120.62857726 5.75699574 118.54306434 5.75198364 116.4574585 C5.75160662 115.28799557 5.75122959 114.11853264 5.75084114 112.91363144 C5.92051501 110.38397791 5.92051501 110.38397791 4.625 109.3125 C2.75178052 109.15196185 2.75178052 109.15196185 0.625 109.1875 C-0.096875 109.18492188 -0.81875 109.18234375 -1.5625 109.1796875 C-3.39589415 109.11554724 -3.39589415 109.11554724 -4.375 110.3125 Z M-23.375 110.3125 C-23.58538969 132.84363925 -23.74402176 155.37461617 -23.84130955 177.90653896 C-23.88768607 188.36893519 -23.95089502 198.83072053 -24.05395508 209.29272461 C-24.14375638 218.41314373 -24.20174655 227.5331204 -24.22179645 236.65396935 C-24.23351418 241.48214984 -24.26098264 246.30906474 -24.32657051 251.13683891 C-24.38785999 255.68525504 -24.40646543 260.23188984 -24.39296913 264.7806797 C-24.39543641 266.4459948 -24.413225 268.1113721 -24.44784927 269.77632904 C-24.77067808 279.00795292 -24.77067808 279.00795292 -21.33784294 287.35920906 C-19.12627434 289.6167636 -16.99149265 291.54544864 -14.375 293.3125 C-14.045 293.3125 -13.715 293.3125 -13.375 293.3125 C-13.375 232.9225 -13.375 172.5325 -13.375 110.3125 C-19.26025134 108.93025767 -19.26025134 108.93025767 -23.375 110.3125 Z " fill="#F59400" transform="translate(560.375,8.6875)"/>
<path d="M0 0 C12.99375 -0.0825 25.9875 -0.165 39.375 -0.25 C45.50328369 -0.30462402 45.50328369 -0.30462402 51.75537109 -0.36035156 C56.78833008 -0.37841797 56.78833008 -0.37841797 59.15298462 -0.3817749 C60.785923 -0.38787149 62.41884466 -0.40184393 64.05166626 -0.42230225 C86.05351077 -0.68391877 86.05351077 -0.68391877 94.62109375 7.2734375 C100.33157366 14.42367014 103.58686461 22.83980895 103 32 C102.11837475 37.0538236 100.96855514 41.93871598 98.78125 46.59375 C97.76306629 48.94113262 97.76306629 48.94113262 98.64453125 51.0703125 C99.02996094 51.74835937 99.41539062 52.42640625 99.8125 53.125 C103.82795066 61.33285337 103.92857819 70.39052246 101 79 C97.26123939 87.5258899 91.98495869 92.60578173 83.35507202 96.05807495 C79.49915916 97.14060936 75.94177715 97.26626751 71.97509766 97.22705078 C71.18139959 97.22729185 70.38770153 97.22753292 69.56995201 97.2277813 C67.01787212 97.22629651 64.46608967 97.21110238 61.9140625 97.1953125 C60.33162578 97.19236947 58.74918711 97.19033063 57.16674805 97.18920898 C51.31946888 97.17875177 45.47223147 97.15082922 39.625 97.125 C26.54875 97.08375 13.4725 97.0425 0 97 C0 64.99 0 32.98 0 0 Z M34 26 C34 28.97 34 31.94 34 35 C38.80548597 35.04936883 43.61082494 35.08570443 48.41650391 35.10986328 C50.05194672 35.11993254 51.68737149 35.13358881 53.32275391 35.15087891 C55.6709437 35.17508705 58.01889588 35.18647357 60.3671875 35.1953125 C61.46726639 35.21079636 61.46726639 35.21079636 62.58956909 35.22659302 C64.39462697 35.22699368 66.1990783 35.12212755 68 35 C70.2491908 33.17296773 70.2491908 33.17296773 70.25 30.5 C70.2491908 27.82703227 70.2491908 27.82703227 68 26 C65.41896694 25.82497005 62.94691837 25.76837721 60.3671875 25.8046875 C59.61535187 25.8075174 58.86351624 25.81034729 58.08889771 25.81326294 C55.68410422 25.82447126 53.27968119 25.84957648 50.875 25.875 C49.24609912 25.88502898 47.61719242 25.89415497 45.98828125 25.90234375 C41.99204444 25.92441265 37.99608506 25.95894649 34 26 Z M34 61 C34 64.3 34 67.6 34 71 C38.80548597 71.04936883 43.61082494 71.08570443 48.41650391 71.10986328 C50.05194672 71.11993254 51.68737149 71.13358881 53.32275391 71.15087891 C55.6709437 71.17508705 58.01889588 71.18647357 60.3671875 71.1953125 C61.46726639 71.21079636 61.46726639 71.21079636 62.58956909 71.22659302 C64.39462697 71.22699368 66.1990783 71.12212755 68 71 C70.20857238 69.17213728 70.20857238 69.17213728 70.4375 66.5625 C70.26546609 63.83454965 70.26546609 63.83454965 67.92700195 62.3581543 C64.31039781 60.6800186 61.71022544 60.65789845 57.73046875 60.70703125 C56.70896477 60.71339851 56.70896477 60.71339851 55.66682434 60.71989441 C53.50663541 60.7365939 51.34740358 60.77422688 49.1875 60.8125 C47.71681042 60.82755826 46.24610611 60.84124466 44.77539062 60.85351562 C41.18328643 60.88646786 37.59173674 60.93818827 34 61 Z " fill="#FFFFFF" transform="translate(290,882)"/>
<path d="M0 0 C13.32375 -0.0825 26.6475 -0.165 40.375 -0.25 C46.65990479 -0.30462402 46.65990479 -0.30462402 53.07177734 -0.36035156 C58.23168945 -0.37841797 58.23168945 -0.37841797 60.65567017 -0.3817749 C62.3302741 -0.38787316 64.00486168 -0.40184919 65.67935181 -0.42230225 C76.63025749 -0.5492478 86.13146525 -0.54887932 95.3125 6.25 C102.33972063 13.44064437 105.03859795 20.77469704 105.375 30.8125 C105.20232194 40.39105381 102.49250435 47.24079796 95.94921875 54.23828125 C92.91420819 56.98134691 89.59028534 59.06031338 86 61 C87.49999789 65.12943988 89.51687043 68.69414455 91.80859375 72.4375 C92.35967552 73.34133423 92.35967552 73.34133423 92.92189026 74.26342773 C94.09019844 76.17782228 95.26371858 78.08895747 96.4375 80 C97.22235927 81.28363775 98.00686791 82.56748995 98.79101562 83.8515625 C100.23536158 86.21620358 101.68211788 88.5792991 103.13061523 90.94140625 C103.74751221 91.95074219 104.36440918 92.96007812 105 94 C105.5762915 94.91652344 106.15258301 95.83304688 106.74633789 96.77734375 C108 99 108 99 108 101 C95.46 101 82.92 101 70 101 C63.375 89.125 63.375 89.125 61.32568359 85.44580078 C58.01722268 79.52717128 54.64077257 73.67584979 51.05322266 67.92138672 C50 66 50 66 50 64 C45.05 64 40.1 64 35 64 C35 76.21 35 88.42 35 101 C23.45 101 11.9 101 0 101 C0 67.67 0 34.34 0 0 Z M35 27 C35 30.3 35 33.6 35 37 C39.18087152 37.07441989 43.3613873 37.12872818 47.54272461 37.16479492 C48.96369141 37.1798376 50.38461213 37.20027704 51.80541992 37.22631836 C53.85346886 37.26290347 55.9009015 37.27977097 57.94921875 37.29296875 C59.17987061 37.3086792 60.41052246 37.32438965 61.6784668 37.34057617 C65.28207741 36.97107696 67.16563029 36.22598813 70 34 C70.66685938 31.45672892 70.66685938 31.45672892 70 29 C66.40555817 26.60370545 63.85138348 26.74218669 59.70703125 26.8046875 C59.00100266 26.8075174 58.29497406 26.81034729 57.56755066 26.81326294 C55.31569367 26.82444536 53.06423648 26.8495458 50.8125 26.875 C49.28451096 26.88503233 47.75651567 26.89415774 46.22851562 26.90234375 C42.48552337 26.92437828 38.74282944 26.95889433 35 27 Z " fill="#FFFFFF" transform="translate(292,745)"/>
<path d="M0 0 C11.55 0 23.1 0 35 0 C37.97 3.96 40.94 7.92 44 12 C46.07884534 14.73283616 48.16026355 17.4630624 50.25 20.1875 C51.35421229 21.6288713 52.45837742 23.07027873 53.5625 24.51171875 C54.12195313 25.24181152 54.68140625 25.9719043 55.2578125 26.72412109 C57.07011581 29.09159468 58.8792 31.46149874 60.6875 33.83203125 C61.28401367 34.61360596 61.88052734 35.39518066 62.49511719 36.20043945 C63.64734078 37.71028837 64.7990502 39.22052984 65.95019531 40.73120117 C66.46678711 41.40771729 66.98337891 42.0842334 67.515625 42.78125 C67.97227539 43.38001953 68.42892578 43.97878906 68.89941406 44.59570312 C69.93512494 45.97524696 69.93512494 45.97524696 71 47 C71.33 31.49 71.66 15.98 72 0 C83.22 0 94.44 0 106 0 C106 32.01 106 64.02 106 97 C94.78 97 83.56 97 72 97 C60.76923077 83.52307692 60.76923077 83.52307692 56.5625 78.125 C55.64464364 76.94913101 54.72667123 75.77335261 53.80859375 74.59765625 C53.34952637 74.00871582 52.89045898 73.41977539 52.41748047 72.81298828 C50.96282634 70.95245409 49.50021713 69.09844196 48.03515625 67.24609375 C47.54781006 66.62911621 47.06046387 66.01213867 46.55834961 65.37646484 C45.63708085 64.21056008 44.71480131 63.04545292 43.79125977 61.88134766 C40.72633595 57.99495197 37.88497081 54.03895914 35 50 C34.67 65.51 34.34 81.02 34 97 C22.78 97 11.56 97 0 97 C0 64.99 0 32.98 0 0 Z " fill="#FFFFFF" transform="translate(816,882)"/>
<path d="M0 0 C29.7 0 59.4 0 90 0 C90 8.91 90 17.82 90 27 C71.85 27 53.7 27 35 27 C35 30.3 35 33.6 35 37 C53.15 37 71.3 37 90 37 C90 45.91 90 54.82 90 64 C71.85 64 53.7 64 35 64 C35 67.3 35 70.6 35 74 C53.15 74 71.3 74 90 74 C90 82.91 90 91.82 90 101 C60.3 101 30.6 101 0 101 C0 67.67 0 34.34 0 0 Z " fill="#FFFFFF" transform="translate(632,745)"/>
<path d="M0 0 C16.9228125 -0.1546875 16.9228125 -0.1546875 34.1875 -0.3125 C37.72364014 -0.35802002 41.25978027 -0.40354004 44.90307617 -0.45043945 C49.28771973 -0.47302246 49.28771973 -0.47302246 51.35322571 -0.47721863 C52.76773491 -0.48479738 54.18221592 -0.50217198 55.59651184 -0.52787781 C69.64894404 -0.77007878 82.31261548 2.28087424 93 12 C102.80477169 23.21516346 107.52293429 35.38854075 107.1875 50.2734375 C106.26274382 63.72093359 100.67355728 75.8673533 90.875 85.1875 C82.54173318 92.25174142 72.07115417 97.26792251 61.07666016 97.22705078 C60.40190832 97.22729185 59.72715649 97.22753292 59.03195763 97.2277813 C56.8675208 97.22629936 54.70343696 97.21111886 52.5390625 97.1953125 C51.19490728 97.19236858 49.85074977 97.19033029 48.5065918 97.18920898 C43.54602603 97.17876212 38.58550947 97.15083956 33.625 97.125 C22.52875 97.08375 11.4325 97.0425 0 97 C0 64.99 0 32.98 0 0 Z M34 26 C34 40.85 34 55.7 34 71 C51.64906425 72.20781493 51.64906425 72.20781493 66.07421875 65.1640625 C71.96416296 58.92765099 73.4891794 53.22740268 73.31640625 44.75 C72.68272222 39.2424252 70.15295431 35.52596894 66.875 31.1875 C57.10174917 23.75133089 46.2573418 26 34 26 Z " fill="#FFFFFF" transform="translate(547,882)"/>
<path d="M0 0 C13.0065126 8.81448552 20.14012266 20.56964707 24 35.6875 C25.26988333 51.24357077 22.86180703 64.81965404 13.2109375 77.41015625 C4.84968957 87.20433889 -6.65121688 95.8535408 -19.94140625 96.92700195 C-38.35254118 97.40282515 -52.84634235 94.65216782 -66.87109375 81.7890625 C-78.84553024 68.79393599 -81.55716863 54.11240459 -80.92919922 37.17285156 C-80.03461978 25.0777475 -72.55393337 12.86243669 -63.75 4.75 C-44.82424141 -9.48799377 -20.66770984 -12.30488992 0 0 Z M-42.328125 32.46875 C-46.02730826 37.48603304 -47.17204781 41.41928291 -46.75 47.75 C-44.64155682 54.18630025 -41.60188434 57.91211898 -35.9375 61.5625 C-30.36444608 63.63873577 -25.90691662 63.53049072 -20.5625 61.125 C-15.75876102 58.46781367 -12.51233553 55.03700659 -10.75 49.75 C-10.01575261 42.86492608 -10.60938784 38.34542184 -14.75 32.75 C-19.05790635 28.66301193 -22.667111 26.95487433 -28.5625 26.375 C-33.99848045 26.54936164 -38.62186622 28.43223054 -42.328125 32.46875 Z " fill="#FFFFFF" transform="translate(487.75,750.25)"/>
<path d="M0 0 C12.973125 -0.0825 25.94625 -0.165 39.3125 -0.25 C45.42712769 -0.30462402 45.42712769 -0.30462402 51.6652832 -0.36035156 C56.69372559 -0.37841797 56.69372559 -0.37841797 59.05754089 -0.3817749 C60.68710211 -0.38786456 62.3166468 -0.4018221 63.9460907 -0.42230225 C74.9400236 -0.55341716 84.27016031 -0.24272502 93.875 5.8125 C100.95403253 13.09973937 104.04079968 20.72907851 104.4375 30.9375 C104.15904258 39.97576379 101.33451275 47.64199955 95.05859375 54.21484375 C86.605253 61.54534987 78.22880368 64.32324699 67.2265625 64.1953125 C66.3028183 64.1924826 65.3790741 64.18965271 64.42733765 64.18673706 C61.49309024 64.17559179 58.5591543 64.15049765 55.625 64.125 C53.62891068 64.11496289 51.63281654 64.10583832 49.63671875 64.09765625 C44.75759757 64.07737728 39.87914517 64.03821785 35 64 C35 76.21 35 88.42 35 101 C23.45 101 11.9 101 0 101 C0 67.67 0 34.34 0 0 Z M35 27 C35 30.3 35 33.6 35 37 C39.0384057 37.0744389 43.07654293 37.12873729 47.11547852 37.16479492 C48.48794517 37.17983432 49.86036414 37.20027133 51.23266602 37.22631836 C53.21088656 37.26291221 55.18946514 37.27816698 57.16796875 37.29296875 C58.35672607 37.3086792 59.5454834 37.32438965 60.77026367 37.34057617 C64.28064831 36.97040559 66.15535052 36.03323257 69 34 C68.65772428 31.02934491 68.65772428 31.02934491 68 28 C65.02640551 26.51320275 62.33700821 26.88887395 59.0234375 26.90234375 C58.33819 26.9037587 57.6529425 26.90517365 56.94692993 26.90663147 C54.75624239 26.91223325 52.5656567 26.92478594 50.375 26.9375 C48.89062648 26.94251478 47.40625135 26.94707772 45.921875 26.95117188 C42.28121685 26.96220323 38.64061836 26.97946901 35 27 Z " fill="#FFFFFF" transform="translate(180,745)"/>
<path d="M0 0 C11.8759022 7.74944574 19.83683282 18.37747446 23.51611328 32.13037109 C26.6379679 48.27401568 22.87166804 62.37022141 14.00048828 75.86865234 C7.15967074 84.83177171 -4.70418194 92.11668094 -15.73388672 93.94287109 C-31.59996236 95.37251132 -44.79454341 93.80265069 -57.73388672 83.94287109 C-58.76513672 83.20037109 -59.79638672 82.45787109 -60.85888672 81.69287109 C-69.94769474 72.99922864 -76.12137934 61.02002966 -76.97216797 48.41162109 C-77.26417899 32.79671572 -73.15582737 19.38272223 -62.48388672 7.59912109 C-46.15786651 -7.85229089 -19.52454343 -11.90386835 0 0 Z M-40.54638672 34.00537109 C-43.81842492 38.39925096 -44.09341391 41.54996326 -43.73388672 46.94287109 C-41.90448888 53.07673445 -38.79301408 56.31005193 -33.73388672 59.94287109 C-29.78516248 61.91723322 -25.03771905 61.38116802 -20.73388672 60.94287109 C-15.46259859 58.35514783 -12.34899655 54.7116308 -9.42138672 49.69287109 C-8.0634618 44.2611714 -8.88892733 39.5422585 -11.48388672 34.63037109 C-14.65658865 30.84075489 -18.0219478 27.21317873 -23.12451172 26.70458984 C-31.07339738 26.49826631 -35.2226044 27.95767503 -40.54638672 34.00537109 Z " fill="#FFFFFF" transform="translate(256.73388671875,886.05712890625)"/>
<path d="M0 0 C17.16 0 34.32 0 52 0 C53.92883398 5.14355728 55.68133132 10.05385432 57.20483398 15.29541016 C57.40367187 15.97634735 57.60250977 16.65728455 57.80737305 17.3588562 C58.45655226 19.58474792 59.10136722 21.8118774 59.74609375 24.0390625 C60.20278922 25.60842311 60.65974902 27.17770682 61.11695862 28.74691772 C62.31660421 32.86706301 63.51249825 36.98828806 64.7076416 41.10974121 C65.9127052 45.26266568 67.12163759 49.41446346 68.33007812 53.56640625 C72.90357475 69.28757485 72.90357475 69.28757485 74.84786987 76.02032471 C75.62191243 78.70026292 76.40441661 81.37753915 77.19241333 84.05340576 C77.55954437 85.31114807 77.92667542 86.56889038 78.30493164 87.86474609 C78.63215714 88.97739838 78.95938263 90.09005066 79.29652405 91.23641968 C80 94 80 94 80 97 C68.45 97 56.9 97 45 97 C44.34 93.7 43.68 90.4 43 87 C31.78 87 20.56 87 9 87 C8.34 90.3 7.68 93.6 7 97 C-4.55 97 -16.1 97 -28 97 C-26.73036511 90.65182553 -25.42820944 84.58522597 -23.6015625 78.41674805 C-23.37039734 77.62352646 -23.13923218 76.83030487 -22.90106201 76.01304626 C-22.14653844 73.42803134 -21.38593626 70.84485256 -20.625 68.26171875 C-20.09426163 66.44961749 -19.56383058 64.63742619 -19.03369141 62.82514954 C-17.92681781 59.0446735 -16.81706706 55.26505848 -15.70507812 51.48608398 C-14.28148646 46.64772989 -12.86389096 41.80764454 -11.44827271 36.96695232 C-10.35554942 33.2320364 -9.26031091 29.49786194 -8.16424561 25.76392555 C-7.64053801 23.97915807 -7.11746065 22.19420553 -6.59503174 20.40906334 C-5.86529053 17.91740536 -5.13232201 15.4267196 -4.3984375 12.9362793 C-4.07730988 11.8366687 -4.07730988 11.8366687 -3.74969482 10.71484375 C-2.66187053 7.03636573 -1.42934397 3.57335992 0 0 Z M25 26 C22.03 37.55 19.06 49.1 16 61 C22.6 61 29.2 61 36 61 C33.30726771 49.23176258 30.31269408 37.60800591 27 26 C26.34 26 25.68 26 25 26 Z " fill="#FFFFFF" transform="translate(731,882)"/>
<path d="M0 0 C1.46400675 0.00747903 2.92802364 0.01316408 4.39204407 0.01715088 C8.20788193 0.03227693 12.02309117 0.07144202 15.83868408 0.1159668 C19.74718731 0.15720456 23.65579412 0.17522214 27.56445312 0.1953125 C35.2060462 0.23795271 42.84699485 0.30819131 50.48828125 0.390625 C50.48828125 8.970625 50.48828125 17.550625 50.48828125 26.390625 C44.89246094 26.48150391 44.89246094 26.48150391 39.18359375 26.57421875 C35.58282367 26.63597215 31.98208616 26.69937477 28.38134766 26.76293945 C25.87291341 26.80633403 23.36444876 26.8480057 20.85595703 26.88793945 C17.25674257 26.94553257 13.65768183 27.00925843 10.05859375 27.07421875 C8.36792282 27.09928749 8.36792282 27.09928749 6.64309692 27.12486267 C5.60216888 27.14480789 4.56124084 27.16475311 3.48876953 27.18530273 C2.56943634 27.20084702 1.65010315 27.2163913 0.70291138 27.23240662 C-1.55247029 27.2516928 -1.55247029 27.2516928 -3.51171875 28.390625 C-3.51171875 30.040625 -3.51171875 31.690625 -3.51171875 33.390625 C-0.58705301 34.85295787 2.03350143 34.53740498 5.296875 34.56640625 C6.69858211 34.58964148 8.1002748 34.61376021 9.50195312 34.63867188 C11.70020675 34.67347979 13.89794262 34.70295279 16.09643555 34.71655273 C26.3763904 34.79251011 35.21167033 35.76413869 44.30078125 41.015625 C52.53455314 49.95514877 53.96298271 58.39978324 53.76953125 70.10546875 C53.41487789 78.21816429 50.25126879 84.75861445 44.48828125 90.390625 C37.95330021 95.24788834 31.8940319 97.64875991 23.65673828 97.61767578 C22.6751902 97.61811386 22.6751902 97.61811386 21.67381287 97.61856079 C19.53110049 97.61717788 17.38874468 97.60166647 15.24609375 97.5859375 C13.75251455 97.58220366 12.25893288 97.57935844 10.76535034 97.57736206 C6.84937687 97.56975478 2.93355361 97.55013153 -0.98236084 97.5279541 C-4.98431364 97.50743283 -8.98629091 97.49834695 -12.98828125 97.48828125 C-20.82950343 97.46688263 -28.67057505 97.43172445 -36.51171875 97.390625 C-36.51171875 88.810625 -36.51171875 80.230625 -36.51171875 71.390625 C-18.03171875 71.060625 0.44828125 70.730625 19.48828125 70.390625 C19.48828125 68.410625 19.48828125 66.430625 19.48828125 64.390625 C15.38354358 62.43952676 12.02359498 62.12767591 7.5 62.08203125 C6.13996982 62.05686332 4.77994388 62.03146542 3.41992188 62.00585938 C1.30054915 61.97722251 -0.81874985 61.95317363 -2.93823242 61.93432617 C-14.67398274 61.8098706 -22.66725973 60.93940301 -31.52734375 52.64453125 C-37.58850358 45.76010365 -38.86616442 37.25116547 -38.7109375 28.35546875 C-38.10207348 19.29413958 -35.39917598 13.42222829 -29.44921875 6.58203125 C-20.56713673 -0.04409642 -10.63760825 -0.16161016 0 0 Z " fill="#FFFFFF" transform="translate(437.51171875,881.609375)"/>
<path d="M0 0 C0.66 0 1.32 0 2 0 C3.52602134 1.9253251 4.9258532 3.8517389 6.3125 5.875 C7.21153457 7.16064954 8.1113116 8.44578012 9.01171875 9.73046875 C9.49302246 10.42060059 9.97432617 11.11073242 10.47021484 11.82177734 C13.15027776 15.63785161 15.89000886 19.41070203 18.625 23.1875 C19.17978027 23.95553955 19.73456055 24.7235791 20.30615234 25.51489258 C22.66069857 28.77382247 25.01805131 32.03045798 27.39453125 35.2734375 C28.06871094 36.19382812 28.74289062 37.11421875 29.4375 38.0625 C29.99308594 38.81660156 30.54867187 39.57070313 31.12109375 40.34765625 C32.05115234 41.66056641 32.05115234 41.66056641 33 43 C33.71624542 43.88344841 33.71624542 43.88344841 34.44696045 44.78474426 C39.29224334 51.19109509 40.10677807 56.69638916 40.39453125 64.6015625 C40.46361946 66.39356583 40.46361946 66.39356583 40.53410339 68.22177124 C40.6123675 70.74094922 40.67269366 73.26074149 40.71606445 75.78076172 C40.78013153 78.3346861 40.89604879 80.88785656 41.06469727 83.43701172 C42.42240011 103.97376033 42.42240011 103.97376033 36.77877808 110.61312866 C31.30306971 115.25314762 25.23520545 118.56198426 18.78025818 121.64067078 C14.97333342 123.50195982 11.47486478 125.74128551 7.9375 128.0625 C2.90294964 131.16703358 2.90294964 131.16703358 -0.9140625 130.4609375 C-4.56693338 128.73160369 -7.92004135 126.75195913 -11.3125 124.5625 C-11.90611328 124.18673828 -12.49972656 123.81097656 -13.11132812 123.42382812 C-14.49327438 122.54567295 -15.85487078 121.63514315 -17.20141602 120.70361328 C-19.55988473 119.26791628 -21.73529098 118.2457645 -24.26538086 117.18310547 C-29.25917406 114.87045983 -33.66284384 112.48441106 -37 108 C-39.74661997 100.28203775 -39.31720044 91.94039 -39.05151367 83.86083984 C-38.93837492 80.0296273 -38.98916845 76.22624372 -39.06054688 72.39453125 C-39.0386669 56.09388029 -35.89772483 46.06528654 -24.82582092 34.06517029 C-21.66880442 30.49429617 -18.9887627 26.58193914 -16.25 22.6875 C-15.18786538 21.21364066 -14.12428718 19.7408194 -13.05859375 18.26953125 C-11.02936597 15.44812786 -9.02336177 12.61216642 -7.03515625 9.76171875 C-6.57399414 9.10405518 -6.11283203 8.4463916 -5.63769531 7.76879883 C-4.77574887 6.53701575 -3.91931029 5.30135382 -3.06933594 4.0612793 C-2.0954123 2.67171233 -1.05402891 1.32982957 0 0 Z M-11 40 C-13.68997061 42.30763976 -16.34872195 44.6480598 -19 47 C-19.61617187 47.52464844 -20.23234375 48.04929687 -20.8671875 48.58984375 C-23.64040553 51.09104758 -24.92385642 52.50506675 -25.5 56.25 C-25.24507652 59.1343968 -25.24507652 59.1343968 -23 61 C-20.71139875 61.68178021 -20.71139875 61.68178021 -18 61 C-15.42946028 59.2286394 -13.3080143 57.09665172 -11.125 54.875 C-10.51914062 54.30523437 -9.91328125 53.73546875 -9.2890625 53.1484375 C-5.67232737 49.57819672 -5.67232737 49.57819672 -4.95703125 44.65625 C-5.75805285 41.77372623 -5.75805285 41.77372623 -8.5625 40.625 C-9.366875 40.41875 -10.17125 40.2125 -11 40 Z M6.625 48.65234375 C5.93019531 49.29284668 5.23539063 49.93334961 4.51953125 50.59326172 C3.68808594 51.38748535 2.85664062 52.18170898 2 53 C1.49645996 53.47721497 0.99291992 53.95442993 0.47412109 54.44610596 C-3.10021724 57.83889773 -6.63145705 61.27254497 -10.13916016 64.73413086 C-11.38791825 65.96109876 -12.64291192 67.18174999 -13.90380859 68.39624023 C-15.74216826 70.16784117 -17.56018915 71.95822801 -19.375 73.75390625 C-19.94049561 74.2915712 -20.50599121 74.82923615 -21.08862305 75.38319397 C-23.69130153 77.99990121 -24.93677235 79.56676749 -25.4765625 83.26538086 C-25.24620318 86.13727009 -25.24620318 86.13727009 -23 88 C-20.09353972 88.38353397 -18.57624168 88.38629404 -16.11468506 86.73614502 C-15.52479797 86.14420349 -14.93491089 85.55226196 -14.32714844 84.94238281 C-13.65004822 84.27458801 -12.972948 83.60679321 -12.27532959 82.91876221 C-11.56056458 82.18760193 -10.84579956 81.45644165 -10.109375 80.703125 C-8.99154633 79.58535675 -8.99154633 79.58535675 -7.85113525 78.44500732 C-6.27855807 76.8670696 -4.71210337 75.28300998 -3.15136719 73.69335938 C-0.75915253 71.25931258 1.65366115 68.8472607 4.0703125 66.4375 C5.59501885 64.9023008 7.11849872 63.36588234 8.640625 61.828125 C9.36348694 61.10506165 10.08634888 60.38199829 10.83111572 59.63702393 C11.82785309 58.61641876 11.82785309 58.61641876 12.84472656 57.57519531 C13.43143127 56.98007141 14.01813599 56.38494751 14.62261963 55.77178955 C16.15129508 53.80538197 16.70612136 52.46489234 17 50 C15.92154693 47.67316312 15.92154693 47.67316312 14 46 C9.61596568 45.99438115 9.61596568 45.99438115 6.625 48.65234375 Z " fill="#007EFF" transform="translate(550,441)"/>
<path d="M0 0 C7.01634418 8.74217861 13.35117956 17.92497574 19.65795898 27.18408203 C24.06570748 33.65061822 28.52357728 40.08084733 33 46.5 C39.56233864 55.91471212 46.06208812 65.37023115 52.53125 74.84912109 C58.58310006 83.71162094 64.67697617 92.54421992 70.8112793 101.34985352 C73.54051072 105.2678972 76.26654155 109.18815768 78.99121094 113.109375 C80.32175772 115.02401694 81.65312728 116.93808739 82.98535156 118.8515625 C84.82843807 121.50187423 86.66514169 124.15648754 88.5 126.8125 C89.05800293 127.61276611 89.61600586 128.41303223 90.19091797 129.23754883 C90.94719482 130.33619263 90.94719482 130.33619263 91.71875 131.45703125 C92.38293945 132.4157312 92.38293945 132.4157312 93.06054688 133.39379883 C94 135 94 135 94 137 C89.1295537 138.08510735 84.25894046 139.16946136 79.38818359 140.25317383 C77.73774899 140.62048932 76.08735699 140.98799626 74.43701172 141.35571289 C70.46257246 142.24120346 66.48748252 143.12343318 62.51074219 143.99853516 C59.62612169 144.63434943 56.74743098 145.28991191 53.87207031 145.96630859 C52.0211377 146.39097412 52.0211377 146.39097412 50.1328125 146.82421875 C48.52623779 147.20259888 48.52623779 147.20259888 46.88720703 147.58862305 C43.83815254 148.02306046 41.90672657 148.00638726 39 147 C37.35351562 145.42797852 37.35351562 145.42797852 35.90625 143.37890625 C35.35759277 142.61747314 34.80893555 141.85604004 34.24365234 141.0715332 C33.66824707 140.24355225 33.0928418 139.41557129 32.5 138.5625 C31.88979004 137.70938232 31.27958008 136.85626465 30.65087891 135.97729492 C29.38030899 134.1992508 28.11556165 132.41703262 26.85644531 130.63085938 C24.58152794 127.40696279 22.27518338 124.20666889 19.96289062 121.00952148 C18.96100894 119.62330787 17.96192273 118.23506553 16.96679688 116.84399414 C16.49048828 116.18004639 16.01417969 115.51609863 15.5234375 114.83203125 C14.79690475 113.78792084 14.79690475 113.78792084 14.05569458 112.72271729 C12.46114373 110.61077362 10.86202748 108.73916266 9.07211304 106.80595398 C-0.85798651 95.61966012 -1.63782881 86.4227098 -1.171875 71.875 C-1.14943676 69.79041479 -1.13238209 67.70576541 -1.12042236 65.62109375 C-1.07504469 60.18773369 -0.95757826 54.75834891 -0.82397461 49.32653809 C-0.70024333 43.76250976 -0.64620653 38.19782598 -0.5859375 32.6328125 C-0.45802387 21.75348094 -0.25378048 10.87707355 0 0 Z " fill="#007FFF" transform="translate(556,338)"/>
<path d="M0 0 C0.33 0 0.66 0 1 0 C1.2325658 12.03114029 1.40981782 24.06173865 1.51812172 36.09467602 C1.57012586 41.68331457 1.64056186 47.27040603 1.75439453 52.8581543 C1.86372892 58.25941787 1.92298207 63.65920173 1.94877243 69.0614872 C1.96713022 71.11359241 2.00297952 73.16562425 2.05730057 75.21709251 C2.36705724 87.40956629 1.87570135 95.35429453 -6.58247375 104.56253052 C-7.38025742 105.36689545 -8.17804108 106.17126038 -9 107 C-9.93316356 108.20991687 -10.84318465 109.43887669 -11.70703125 110.69921875 C-13.23084939 112.8619662 -14.75786255 115.02218079 -16.2890625 117.1796875 C-16.71993164 117.78780273 -17.15080078 118.39591797 -17.59472656 119.02246094 C-21.37000563 124.33513648 -25.1804905 129.62176748 -29.02734375 134.8828125 C-30.78007204 137.28427433 -32.44477251 139.68439475 -34.06640625 142.1796875 C-34.62199219 143.00726563 -35.17757812 143.83484375 -35.75 144.6875 C-36.17796875 145.37199219 -36.6059375 146.05648437 -37.046875 146.76171875 C-42.25222075 150.06190796 -52.25180522 146.21643366 -57.9609375 144.96875 C-58.87332184 144.77277222 -59.78570618 144.57679443 -60.72573853 144.37487793 C-62.63710986 143.96343927 -64.54802547 143.54987828 -66.45849609 143.13427734 C-69.38667649 142.49746061 -72.31623614 141.86733172 -75.24609375 141.23828125 C-77.10945837 140.83632377 -78.97274258 140.43399332 -80.8359375 140.03125 C-81.71091888 139.84268433 -82.58590027 139.65411865 -83.48739624 139.45983887 C-84.70478989 139.19451355 -84.70478989 139.19451355 -85.94677734 138.92382812 C-86.65909515 138.76918091 -87.37141296 138.61453369 -88.10531616 138.4552002 C-90 138 -90 138 -93 137 C-91.74218914 133.58801589 -90.31057859 130.76121195 -88.19921875 127.8046875 C-87.64081299 127.01610352 -87.08240723 126.22751953 -86.50708008 125.41503906 C-85.60638794 124.15771973 -85.60638794 124.15771973 -84.6875 122.875 C-83.41317614 121.07614841 -82.13975991 119.27665355 -80.8671875 117.4765625 C-80.22104492 116.56422852 -79.57490234 115.65189453 -78.90917969 114.71191406 C-76.00383777 110.58499105 -73.15507098 106.42030567 -70.3125 102.25 C-69.77367187 101.46061035 -69.23484375 100.6712207 -68.6796875 99.85791016 C-67.61987929 98.30517537 -66.56030299 96.75228226 -65.50097656 95.19921875 C-58.76183629 85.32508478 -51.95869149 75.49639862 -45.125 65.6875 C-38.52651045 56.21539937 -31.98890425 46.70356788 -25.48193359 37.16845703 C-22.72621772 33.13612286 -19.95670769 29.11326723 -17.18481445 25.09204102 C-14.59505998 21.33189393 -12.02175507 17.56117652 -9.4609375 13.78125 C-8.86474609 12.90339844 -8.26855469 12.02554687 -7.65429688 11.12109375 C-6.48352904 9.39642806 -5.31548233 7.6699115 -4.15039062 5.94140625 C-3.62380859 5.16667969 -3.09722656 4.39195312 -2.5546875 3.59375 C-2.08530762 2.89958984 -1.61592773 2.20542969 -1.13232422 1.49023438 C-0.75865723 0.99845703 -0.38499023 0.50667969 0 0 Z " fill="#007FFF" transform="translate(545,338)"/>
<path d="M0 0 C2.90756529 2.01570572 5.56698584 4.16869292 8.203125 6.52734375 C6.64029518 10.29338244 4.2967775 12.66373526 1.4140625 15.51171875 C0.95077545 15.9721759 0.4874884 16.43263306 0.01016235 16.90704346 C-1.46253398 18.36859453 -2.94204903 19.82301543 -4.421875 21.27734375 C-5.42493822 22.27036986 -6.42754757 23.26385464 -7.4296875 24.2578125 C-9.88018335 26.68632316 -12.3368417 29.1084905 -14.796875 31.52734375 C-17.55275124 30.46204705 -20.04382114 29.38466376 -22.609375 27.90234375 C-27.2550923 25.89830884 -31.20288247 25.65010264 -35.9453125 27.25390625 C-40.30713949 29.24834759 -43.16078782 31.41504774 -45.796875 35.52734375 C-47.60893184 40.96351428 -47.5068586 46.50949561 -45.609375 51.90234375 C-42.78148752 55.99790492 -39.33925237 58.57101486 -34.796875 60.52734375 C-29.11602841 61.32266227 -24.70364329 60.63895291 -19.796875 57.52734375 C-19.136875 56.86734375 -18.476875 56.20734375 -17.796875 55.52734375 C-13.58955108 55.68657372 -11.39951957 58.58279259 -8.59375 61.4375 C-8.1110968 61.92439804 -7.6284436 62.41129608 -7.13116455 62.91294861 C-5.5958665 64.46499825 -4.07134575 66.02716511 -2.546875 67.58984375 C-1.5059028 68.64586732 -0.4642436 69.70121413 0.578125 70.75585938 C3.12780133 73.3385579 5.66791696 75.93043257 8.203125 78.52734375 C4.36043564 86.80826448 -5.060832 90.36601791 -13.1328125 93.58203125 C-24.22154431 97.51674254 -39.30958467 97.25829495 -50.1640625 92.8515625 C-65.76190476 85.00635697 -75.26463332 74.55404256 -81.03515625 58.0703125 C-84.96519167 44.95004039 -83.30210606 31.04360693 -77.171875 18.90234375 C-69.35038214 5.53259979 -57.8367753 -3.74132845 -42.94287109 -8.00317383 C-27.91963758 -11.28982662 -12.78401306 -8.10341473 0 0 Z " fill="#FFFFFF" transform="translate(814.796875,751.47265625)"/>
<path d="M0 0 C11.55 0 23.1 0 35 0 C35.06318757 7.98269594 35.12325961 15.96446799 35.15525055 23.94719696 C35.17098847 27.66583635 35.19196215 31.38426526 35.22631836 35.1027832 C35.25929322 38.69491933 35.2769318 42.28685342 35.28463173 45.87912941 C35.29274403 47.89342039 35.31609988 49.90763188 35.33988953 51.92179871 C35.34203363 63.84743592 33.85487634 74.99345638 27 85 C26.59265625 85.61359375 26.1853125 86.2271875 25.765625 86.859375 C19.165408 95.63378114 8.4815625 99.95777158 -2 102 C-6.13593112 102.41028008 -10.22088944 102.47771342 -14.375 102.4375 C-15.47263672 102.42992676 -16.57027344 102.42235352 -17.70117188 102.41455078 C-29.74775373 102.16968703 -39.47226569 99.73075495 -49 92 C-49.62519531 91.49855469 -50.25039063 90.99710938 -50.89453125 90.48046875 C-58.08048463 84.04598762 -62.54534704 74.45524423 -64 65 C-64 60.71 -64 56.42 -64 52 C-52.78 52 -41.56 52 -30 52 C-29.01 56.29 -28.02 60.58 -27 65 C-23.88715619 69.68319663 -23.88715619 69.68319663 -19 72 C-14.84767983 72.40434578 -11.13808375 72.404652 -7.1875 71 C-2.07116533 66.3222083 -0.76275171 61.19430494 -0.45410156 54.4921875 C-0.41308935 51.95336807 -0.39303774 49.41414951 -0.390625 46.875 C-0.37562074 45.51877897 -0.35888892 44.16257605 -0.34051514 42.80639648 C-0.29708016 39.26205542 -0.27689625 35.71796072 -0.26177979 32.17340088 C-0.24212176 28.54644498 -0.20037501 24.91974532 -0.16015625 21.29296875 C-0.08305016 14.19514981 -0.04245483 7.09844841 0 0 Z " fill="#FFFFFF" transform="translate(583,745)"/>
<path d="M0 0 C31.35 0 62.7 0 95 0 C95 8.91 95 17.82 95 27 C85.1 27 75.2 27 65 27 C65 51.42 65 75.84 65 101 C53.45 101 41.9 101 30 101 C30 76.58 30 52.16 30 27 C20.1 27 10.2 27 0 27 C0 18.09 0 9.18 0 0 Z " fill="#FFFFFF" transform="translate(827,745)"/>
<path d="M0 0 C0 27.39 0 54.78 0 83 C-7.41817176 80.97686225 -14.52057067 78.85853984 -21.69921875 76.20703125 C-22.98004333 75.73976624 -22.98004333 75.73976624 -24.28674316 75.26306152 C-27.42211876 74.1177628 -30.55465359 72.96469908 -33.6875 71.8125 C-40.720625 69.234375 -47.75375 66.65625 -55 64 C-55 46.84 -55 29.68 -55 12 C-51.22938655 10.74312885 -47.8619867 9.66747721 -44.03613281 8.85498047 C-43.10206604 8.65492401 -42.16799927 8.45486755 -41.20562744 8.24874878 C-39.71938873 7.93612595 -39.71938873 7.93612595 -38.203125 7.6171875 C-37.17314392 7.39805695 -36.14316284 7.17892639 -35.08197021 6.95315552 C-32.9138839 6.492671 -30.74543886 6.0338726 -28.57666016 5.57666016 C-25.24681377 4.87432796 -21.91826292 4.16609298 -18.58984375 3.45703125 C-16.48184462 3.01006852 -14.37377414 2.56344213 -12.265625 2.1171875 C-10.76724091 1.79849197 -10.76724091 1.79849197 -9.23858643 1.47335815 C-7.85639923 1.18272995 -7.85639923 1.18272995 -6.44628906 0.88623047 C-5.63387756 0.71461395 -4.82146606 0.54299744 -3.98443604 0.36618042 C-2 0 -2 0 0 0 Z " fill="#007FFF" transform="translate(654,484)"/>
<path d="M0 0 C30.42526519 5.85101254 30.42526519 5.85101254 41.5625 8.25 C42.77228516 8.50523437 43.98207031 8.76046875 45.22851562 9.0234375 C46.37126953 9.26835937 47.51402344 9.51328125 48.69140625 9.765625 C49.69373291 9.97993164 50.69605957 10.19423828 51.72875977 10.41503906 C54 11 54 11 55 12 C55.09340434 13.62674778 55.11745171 15.25754051 55.11352539 16.88696289 C55.11344986 17.92796646 55.11337433 18.96897003 55.11329651 20.04151917 C55.10813522 21.1737944 55.10297394 22.30606964 55.09765625 23.47265625 C55.0962413 24.62543564 55.09482635 25.77821503 55.09336853 26.96592712 C55.08775005 30.66481064 55.07519442 34.36363464 55.0625 38.0625 C55.05748738 40.56315017 55.05292406 43.06380129 55.04882812 45.56445312 C55.03777462 51.70965588 55.02101852 57.85482369 55 64 C50.18463097 65.74238033 45.36893964 67.48386626 40.55297852 69.22460938 C38.92301207 69.81389633 37.29312605 70.4034058 35.66333008 70.99316406 C30.11127708 73.00211933 24.55659826 75.00365302 19 77 C18.18666199 77.29289917 17.37332397 77.58579834 16.53533936 77.88757324 C14.16931035 78.73839819 11.8017183 79.58471528 9.43359375 80.4296875 C8.71325455 80.68928253 7.99291534 80.94887756 7.25074768 81.21633911 C2.22936698 83 2.22936698 83 0 83 C0 55.61 0 28.22 0 0 Z " fill="#007FFF" transform="translate(448,484)"/>
<path d="M0 0 C6.42685576 0.44657579 12.1618129 2.63834585 18.18359375 4.81640625 C19.23909927 5.19232407 20.2946048 5.56824188 21.38209534 5.95555115 C24.73614225 7.1516891 28.08682606 8.35694998 31.4375 9.5625 C33.71788273 10.37755835 35.99847948 11.19201817 38.27929688 12.00585938 C43.85536215 13.99698046 49.42869817 15.99559179 55 18 C51.86661117 21.28134859 48.83997944 23.95634748 44.9921875 26.35546875 C44.01886475 26.96890137 43.04554199 27.58233398 42.04272461 28.21435547 C40.47470093 29.19106201 40.47470093 29.19106201 38.875 30.1875 C36.62219914 31.60838258 34.37058945 33.03094184 32.12109375 34.45703125 C31.24944328 35.00889099 31.24944328 35.00889099 30.36018372 35.57189941 C23.81308019 39.7305023 17.3760099 44.05100364 10.9375 48.375 C3.2378428 53.54043868 -4.48451007 58.64395667 -12.38720703 63.49511719 C-18.47654468 67.24771468 -24.40591343 71.23406576 -30.32836914 75.24365234 C-31.05403076 75.7330127 -31.77969238 76.22237305 -32.52734375 76.7265625 C-33.17437256 77.16564941 -33.82140137 77.60473633 -34.48803711 78.05712891 C-36 79 -36 79 -37 79 C-37.25400875 71.29604704 -37.42885392 63.59317626 -37.54931641 55.88598633 C-37.59953978 53.26578424 -37.66773478 50.6458615 -37.75439453 48.02661133 C-37.87602596 44.25532169 -37.93247506 40.48773981 -37.9765625 36.71484375 C-38.02817535 35.54791489 -38.07978821 34.38098602 -38.13296509 33.17869568 C-38.13843052 25.21464525 -38.13843052 25.21464525 -34.94026184 21.80236816 C-32.37241698 19.97820035 -29.78583677 18.46550769 -27 17 C-25.82488691 16.26091163 -24.65505862 15.51325997 -23.49389648 14.75244141 C-22.46337158 14.12515137 -21.43284668 13.49786133 -20.37109375 12.8515625 C-19.81051773 12.50870209 -19.24994171 12.16584167 -18.67237854 11.81259155 C-16.9292515 10.74702117 -15.183582 9.68571991 -13.4375 8.625 C-11.10173799 7.20235172 -8.76747333 5.77730212 -6.43359375 4.3515625 C-5.41322021 3.73104004 -4.39284668 3.11051758 -3.34155273 2.47119141 C-1.12632324 1.2005072 -1.12632324 1.2005072 0 0 Z " fill="#007FFF" transform="translate(593,557)"/>
<path d="M0 0 C1.11181641 0.68707031 2.22363281 1.37414062 3.36914062 2.08203125 C3.9443042 2.44280762 4.51946777 2.80358398 5.11206055 3.17529297 C6.83613134 4.25641251 8.56667365 5.32642287 10.29882812 6.39453125 C16.55842679 10.28378045 16.55842679 10.28378045 18.31079102 11.45817566 C20.26216517 12.73955419 20.26216517 12.73955419 22.7722168 14.01899719 C29.65836247 18.01339451 29.65836247 18.01339451 31.04429626 22.39294434 C31.33412991 25.7602605 31.30168305 28.98682884 31.15234375 32.36328125 C31.13819427 33.57415909 31.1240448 34.78503693 31.10946655 36.03260803 C31.05364722 39.88627226 30.92822394 43.73404244 30.80078125 47.5859375 C30.75060479 50.20369185 30.70498022 52.82153768 30.6640625 55.43945312 C30.55402664 61.84444638 30.38687675 68.24602097 30.17578125 74.6484375 C29.0483828 73.93003189 29.0483828 73.93003189 27.89820862 73.19711304 C26.91029831 72.56793976 25.922388 71.93876648 24.90454102 71.29052734 C23.92606705 70.66721527 22.94759308 70.0439032 21.93946838 69.40170288 C19.80499985 68.04760974 17.66622513 66.70318409 15.515625 65.375 C3.6462569 58.0435189 -7.998541 50.37103825 -19.66210938 42.71875 C-23.38821252 40.2791766 -27.12337294 37.85386536 -30.86108398 35.43212891 C-38.26248899 30.63577784 -45.65072833 25.81910313 -53.01171875 20.9609375 C-54.171875 20.2023645 -54.171875 20.2023645 -55.35546875 19.4284668 C-56.06058594 18.96093994 -56.76570313 18.49341309 -57.4921875 18.01171875 C-58.11375732 17.60219971 -58.73532715 17.19268066 -59.37573242 16.77075195 C-60.82421875 15.6484375 -60.82421875 15.6484375 -61.82421875 13.6484375 C-54.6587371 11.04937502 -47.48653627 8.46957198 -40.30932617 5.90307617 C-37.86827993 5.02762284 -35.42880906 4.14776387 -32.9909668 3.26342773 C-29.48760823 1.99343351 -25.97889934 0.73936401 -22.46875 -0.51171875 C-20.83411552 -1.11005272 -20.83411552 -1.11005272 -19.16645813 -1.72047424 C-17.63543709 -2.26114784 -17.63543709 -2.26114784 -16.07348633 -2.81274414 C-15.17857986 -3.13473282 -14.2836734 -3.4567215 -13.36164856 -3.78846741 C-8.03289212 -4.97100124 -4.45460707 -2.76577055 0 0 Z " fill="#007FFF" transform="translate(515.82421875,561.3515625)"/>
<path d="M0 0 C11.22 0 22.44 0 34 0 C34 32.01 34 64.02 34 97 C22.78 97 11.56 97 0 97 C0 64.99 0 32.98 0 0 Z " fill="#FFFFFF" transform="translate(663,882)"/>
<path d="M0 0 C10.89 0 21.78 0 33 0 C33 32.01 33 64.02 33 97 C22.11 97 11.22 97 0 97 C0 64.99 0 32.98 0 0 Z " fill="#FFFFFF" transform="translate(502,882)"/>
</svg>
